{"title":"Friends.with.Benefits.2011.BDRip.XVID.AC3.HQ.Hive-CM8","uid":6798304,"size":1726695592,"categoryP":"video","categoryS":"movies","magnet":"?xt=urn:btih:9ebdd8047964cd3981fd642ca272d8e22b8c4edf&amp;dn=Friends.with.Benefits.2011.BDRip.XVID.AC3.HQ.Hive-CM8&amp;tr=udp%3A%2F%2Ftracker.openbittorrent.com%3A80&amp;tr=udp%3A%2F%2Fopen.demonii.com%3A1337&amp;tr=udp%3A%2F%2Ftracker.coppersurfer.tk%3A6969&amp;tr=udp%3A%2F%2Fexodus.desync.com%3A6969","seeders":0,"leechers":0,"uploader":"TvTeam","files":6,"time":1320546547,"description":". \n &lt;a href=&quot;\nhttp://www.torrenting.com&quot; rel=&quot;nofollow&quot; target=&quot;_NEW&quot;&gt;\nhttp://www.torrenting.com&lt;/a&gt;          :     Once &amp; For all ;)\n\n\n               www . Torrenting . Com \n\n(((((((((((((= Enjoy No RAR releases =))))))))))))))))))))\n\n\n...................................NFO:....................................\n\n.[img]http://img507.imageshack.us/img507/1165/friendswithbenefitsblur.jpg[/img]\n\n\n[color=blue][size=5][b]Friends.with.Benefits.2011.BDRip.XVID.AC3.HQ.Hive-CM8[/b][/size][/color]\n\n\n[b]Thx Hive\n\nCM8 Doing It Right The First Time :D\n\n\nSource: Bluray\n\nVideo: 720x304 @bitrate 1700 2pass\nAudio: English DTS to AC3 5.1 @384\nSample: Yes, included\nSubs: Yes, English in srt /subs[/b]\n &lt;a href=&quot;\nhttp://www.imdb.com/title/tt1632708/&quot; rel=&quot;nofollow&quot; target=&quot;_NEW&quot;&gt;\nhttp://www.imdb.com/title/tt1632708/&lt;/a&gt;\n\n\nGeneral\nComplete name                  : Friends.with.Benefits.2011.BDRip.XVID.AC3.HQ.Hive-CM8.avi\nFormat                         : AVI\nFormat/Info                    : Audio Video Interleave\nFile size                      : 1.60 GiB\nDuration                       : 1h 49mn\nOverall bit rate               : 2 093 Kbps\nWriting application            : Nandub v1.0rc2\nWriting library                : Nandub build 1853/release\n\nVideo\nID                             : 0\nFormat                         : MPEG-4 Visual\nFormat profile                 : Advanced Simple@L5\nFormat settings, BVOP          : 1\nFormat settings, QPel          : Yes\nFormat settings, GMC           : No warppoints\nFormat settings, Matrix        : Default (H.263)\nMuxing mode                    : Packed bitstream\nCodec ID                       : XVID\nCodec ID/Hint                  : XviD\nDuration                       : 1h 49mn\nBit rate                       : 1 700 Kbps\nWidth                          : 720 pixels\nHeight                         : 304 pixels\nDisplay aspect ratio           : 2.40:1\nFrame rate                     : 23.976 fps\nColor space                    : YUV\nChroma subsampling             : 4:2:0\nBit depth                      : 8 bits\nScan type                      : Progressive\nCompression mode               : Lossy\nBits/(Pixel*Frame)             : 0.324\nStream size                    : 1.30 GiB (81%)\nWriting library                : XviD 1.2.1 (UTC 2008-12-04)\n\nAudio\nID                             : 1\nFormat                         : AC-3\nFormat/Info                    : Audio Coding 3\nMode extension                 : CM (complete main)\nCodec ID                       : 2000\nDuration                       : 1h 49mn\nBit rate mode                  : Constant\nBit rate                       : 384 Kbps\nChannel(s)                     : 6 channels\nChannel positions              : Front: L C R, Side: L R, LFE\nSampling rate                  : 48.0 KHz\nBit depth                      : 16 bits\nCompression mode               : Lossy\nStream size                    : 301 MiB (18%)\nAlignment                      : Split accross interleaves\nInterleave, duration           : 42 ms (1.00 video frame)\nInterleave, preload duration   : 500 ms\n\n\nPlot:\nWhile trying to avoid the cliches of Hollywood romantic comedies, Dylan and Jamie\nsoon discover that adding sex to their friendship does lead to complications.\n\n\nCast:\nJustin Timberlake   ...    Dylan\nMila Kunis          ...    Jamie\nPatricia Clarkson   ...    Lorna\nJenna Elfman        ...    Annie\nBryan Greenberg     ...    Parker\n\n\n[img]http://img84.imageshack.us/img84/7973/71023332.png[/img]\n[img]http://img508.imageshack.us/img508/6134/frfrn.png[/img]\n[img]http://img706.imageshack.us/img706/4586/frfrfre.png[/img][img]http://img94.imageshack.us/img94/4811/frfrfrfrfrh.png[/img]\n\n\n\nGreetz\n\nViSiON,SPK,SANTi,3LT0N,FUSiON,YanKeeS,MAGNET,T0XiC,LKRG,FANTASIA-PLAY,FANTASIA-M,FLAWL3SS,\nWBZ,BHRG,NOVA,D2U,THC,Vik,Rapeseed,SAFC,goldadvance,MEMORY100,KaN1vE,Unevano,Pinnz,Wayne,\nMr Hive,and all P2P groups\nGreat Work Guys :D\n\nLOOKING FOR ANYTHING YOU WANT TO LOOK AND SOUND BETTER\n\n&lt;a class=&quot;__cf_email__&quot; href=&quot;/cdn-cgi/l/email-protection&quot; data-cfemail=&quot;fcbfb1c4bc94898f94919d9590d29f9391&quot;&gt;[email&amp;#160;protected]&lt;/a&gt;&lt;script cf-hash='f9e31' type=&quot;text/javascript&quot;&gt;\n/* &lt;![CDATA[ */!function(){try{var t=&quot;currentScript&quot;in document?document.currentScript:function(){for(var t=document.getElementsByTagName(&quot;script&quot;),e=t.length;e--;)if(t[e].getAttribute(&quot;cf-hash&quot;))return t[e]}();if(t&amp;&amp;t.previousSibling){var e,r,n,i,c=t.previousSibling,a=c.getAttribute(&quot;data-cfemail&quot;);if(a){for(e=&quot;&quot;,r=parseInt(a.substr(0,2),16),n=2;a.length-n;n+=2)i=parseInt(a.substr(n,2),16)^r,e+=String.fromCharCode(i);e=document.createTextNode(e),c.parentNode.replaceChild(e,c)}}}catch(u){}}();/* ]]&gt; */&lt;/script&gt;","torrent":{"xt":"urn:btih:9ebdd8047964cd3981fd642ca272d8e22b8c4edf","amp;dn":"Friends.with.Benefits.2011.BDRip.XVID.AC3.HQ.Hive-CM8","amp;tr":["udp%3A%2F%2Ftracker.openbittorrent.com%3A80","udp%3A%2F%2Fopen.demonii.com%3A1337","udp%3A%2F%2Ftracker.coppersurfer.tk%3A6969","udp%3A%2F%2Fexodus.desync.com%3A6969"],"infoHash":"9ebdd8047964cd3981fd642ca272d8e22b8c4edf","infoHashBuffer":{"type":"Buffer","data":[158,189,216,4,121,100,205,57,129,253,100,44,162,114,216,226,43,140,78,223]},"announce":[],"urlList":[]}}